# xmcd
#
# Track frame offsets:
#	182
#	45077
#	105797
#	145625
#	200125
#	225240
#
# Disc length: 3775
#
# Revision: 5
# Processed by: cddbd v1.5.1PL0 Copyright (c) Steve Scherf et al.
# Submitted via: audiograbber 1.83.01
# Normalized: r4:DSETVAR1
#
DISCID=3a0ebd06
DTITLE=Various Artist - Classical Highlights [CD 08 - Dvorák and Smetana)
DYEAR=1993
DGENRE=Classical
TTITLE0=Dvorák - Symphony No.9 (5) in e-minor op.95 (From the new world), Adagio. Allegro Molto
TTITLE1=Dvorák - Symphony No.9 (5) in e-minor op.95 (From the new world), Largo
TTITLE2=Dvorák - Symphony No.9 (5) in e-minor op.95 (From the new world), Scherzo-Molto Vivace-Poco Sustenuto
TTITLE3=Dvorák - Symphony No.9 (5) in e-minor op.95 (From the new world), Allegro Con Fuoco
TTITLE4=Dvorák - Slovenian Dance No.10 (2) in e-minor op.72
TTITLE5=Smetana - My Fatherland, The Moldau
EXTD=Should be classical, not country!
EXTT0=
EXTT1=
EXTT2=
EXTT3=
EXTT4=
EXTT5=
PLAYORDER=
